<svg id="_x33_0" enable-background="new 0 0 64 64" height="512" viewBox="0 0 64 64" width="512" xmlns="http://www.w3.org/2000/svg"><path d="m54 10v2h-8v-2c0-1.1.9-2 2-2h4c1.1 0 2 .9 2 2z" fill="#fcd770"/><path d="m42 10v2h-10v-2c0-1.1.9-2 2-2h6c1.1 0 2 .9 2 2z" fill="#fcd770"/><path d="m62 16v36c0 2.21-1.79 4-4 4h-52c-2.21 0-4-1.79-4-4v-36c0-2.21 1.79-4 4-4h26 10 4 8 4c2.21 0 4 1.79 4 4z" fill="#aab2bd"/><path d="m57 16h-39-11c-.55 0-1 .45-1 1v34c0 .55.45 1 1 1h11 39c.55 0 1-.45 1-1v-34c0-.55-.45-1-1-1z" fill="#69d6f4"/><path d="m14 29v10c0 .55-.45 1-1 1h-2c-.55 0-1-.45-1-1v-10c0-.55.45-1 1-1h2c.55 0 1 .45 1 1z" fill="#e6e9ed"/><path d="m30.04 28.19 1.96 9.81-6.58 7.52c-2.1-1.83-3.42-4.52-3.42-7.52 0-4.85 3.46-8.89 8.04-9.81z" fill="#b4dd7f"/><path d="m32 38h10c0 5.52-4.48 10-10 10-2.52 0-4.82-.93-6.58-2.48z" fill="#fcd770"/><g fill="#ff826e"><circle cx="52" cy="22" r="2"/><path d="m50 28c0 1.1-.9 2-2 2s-2-.9-2-2 .9-2 2-2c.51 0 .98.19 1.33.51.41.37.67.9.67 1.49z"/><path d="m42 20c1.1 0 2 .9 2 2 0 .58-.25 1.1-.65 1.47-.35.33-.83.53-1.35.53-1.1 0-2-.9-2-2s.9-2 2-2z"/><path d="m37 27c1.66 0 3 1.34 3 3 0 .55-.15 1.07-.41 1.51-.52.89-1.48 1.49-2.59 1.49-1.66 0-3-1.34-3-3 0-.62.19-1.2.51-1.68.54-.8 1.45-1.32 2.49-1.32z"/></g><path d="m42 38h-10l-1.96-9.81c.63-.12 1.29-.19 1.96-.19.87 0 1.71.11 2.51.32-.32.48-.51 1.06-.51 1.68 0 1.66 1.34 3 3 3 1.11 0 2.07-.6 2.59-1.49 1.51 1.74 2.41 4.01 2.41 6.49z" fill="#e6e9ed"/><path d="m58 11h-3v-1c0-1.654-1.346-3-3-3h-4c-1.654 0-3 1.346-3 3v1h-2v-1c0-1.654-1.346-3-3-3h-6c-1.654 0-3 1.346-3 3v1h-25c-2.757 0-5 2.243-5 5v36c0 2.757 2.243 5 5 5h52c2.757 0 5-2.243 5-5v-36c0-2.757-2.243-5-5-5zm-11-1c0-.551.448-1 1-1h4c.552 0 1 .449 1 1v1h-6zm-14 0c0-.551.448-1 1-1h6c.552 0 1 .449 1 1v1h-8zm28 42c0 1.654-1.346 3-3 3h-52c-1.654 0-3-1.346-3-3v-36c0-1.654 1.346-3 3-3h52c1.654 0 3 1.346 3 3z"/><path d="m57 15h-50c-1.103 0-2 .897-2 2v34c0 1.103.897 2 2 2h50c1.103 0 2-.897 2-2v-34c0-1.103-.897-2-2-2zm-50.001 2h10.001v34h-10zm50.001 34h-38v-34h38z"/><path d="m13 27h-2c-1.103 0-2 .897-2 2v10c0 1.103.897 2 2 2h2c1.103 0 2-.897 2-2v-10c0-1.103-.897-2-2-2zm-2 12v-10h2l.002 10z"/><path d="m11 21h2v2h-2z"/><path d="m11 45h2v2h-2z"/><path d="m32 27c-6.065 0-11 4.935-11 11s4.935 11 11 11 11-4.935 11-11c0-2.433-.796-4.746-2.25-6.652.152-.423.25-.873.25-1.348 0-1.022-.397-1.946-1.029-2.653l1.594-2.391c.143.021.286.044.435.044.386 0 .752-.079 1.091-.213l1.969 2.625c-.039.191-.06.387-.06.588 0 1.654 1.346 3 3 3s3-1.346 3-3c0-.565-.166-1.088-.439-1.539l1.003-1.505c.144.021.287.044.436.044 1.654 0 3-1.346 3-3s-1.346-3-3-3-3 1.346-3 3c0 .777.304 1.479.79 2.012l-.783 1.174c-.316-.113-.652-.186-1.007-.186-.675 0-1.291.232-1.793.609l-1.607-2.142c.247-.435.4-.931.4-1.467 0-1.654-1.346-3-3-3s-3 1.346-3 3c0 .777.304 1.479.79 2.012l-1.484 2.225c-.411-.143-.846-.237-1.306-.237-1.123 0-2.135.468-2.863 1.216-.701-.139-1.415-.216-2.137-.216zm1.116 2.084c-.07.296-.116.6-.116.916 0 2.206 1.794 4 4 4 .966 0 1.841-.358 2.532-.93.773 1.178 1.252 2.519 1.408 3.93h-8.12l-1.592-7.961c.255-.022.511-.039.772-.039.375 0 .746.039 1.116.084zm-10.116 8.916c0-4.01 2.636-7.412 6.266-8.572l1.657 8.285-5.556 6.349c-1.465-1.601-2.367-3.726-2.367-6.062zm9 9c-1.907 0-3.675-.6-5.132-1.616l5.585-6.384h8.488c-.499 4.493-4.316 8-8.941 8zm20-26c.552 0 1 .449 1 1s-.448 1-1 1-1-.449-1-1 .448-1 1-1zm-4 6c.552 0 1 .449 1 1s-.448 1-1 1-1-.449-1-1 .448-1 1-1zm-6-6c.552 0 1 .449 1 1s-.448 1-1 1-1-.449-1-1 .448-1 1-1zm-5 7c1.103 0 2 .897 2 2s-.897 2-2 2-2-.897-2-2 .897-2 2-2z"/><path d="m53 47h-2v-10h-2v10h-2v-6h-2v6 1 1h10v-1-1-4h-2z"/><path d="m21 19h4v2h-4z"/><path d="m27 19h6v2h-6z"/><path d="m21 23h12v2h-12z"/></svg>