<?xml version="1.0" encoding="iso-8859-1"?>
<!-- Generator: Adobe Illustrator 19.0.0, SVG Export Plug-In . SVG Version: 6.00 Build 0)  -->
<svg version="1.1" id="Capa_1" xmlns="http://www.w3.org/2000/svg" xmlns:xlink="http://www.w3.org/1999/xlink" x="0px" y="0px"
	 viewBox="0 0 496.006 496.006" style="enable-background:new 0 0 496.006 496.006;" xml:space="preserve">
<path style="fill:#ECECEC;" d="M416.003,104.006h40c17.672,0,32-14.328,32-32l0,0c0-17.672-14.328-32-32-32h-40V104.006z"/>
<path style="fill:#8C95A4;" d="M152.003,104.006h-80L15.491,82.814c-4.504-1.688-7.488-5.992-7.488-10.808l0,0
	c0-4.816,2.984-9.12,7.488-10.808l56.512-21.192h104h144h96v64h-72H152.003z"/>
<rect x="392.003" y="40.006" style="fill:#FCD770;" width="32" height="64"/>
<rect x="72.003" y="72.006" style="fill:#48C397;" width="320" height="32"/>
<rect x="72.003" y="40.006" style="fill:#92E0C0;" width="320" height="32"/>
<path style="fill:#FEA82F;" d="M368.003,392.006v-48l-29.336-7.336c-1.256-3.64-2.736-7.176-4.408-10.6l15.568-25.944
	l-33.944-33.944l-25.944,15.568c-3.432-1.672-6.96-3.152-10.6-4.408l-7.336-29.336h-48l-7.336,29.336
	c-3.64,1.256-7.176,2.736-10.6,4.408l-25.944-15.568l-33.944,33.944l15.568,25.944c-1.672,3.432-3.152,6.96-4.408,10.6
	l-29.336,7.336v48l29.336,7.336c1.256,3.64,2.736,7.176,4.408,10.6l-15.568,25.944l33.944,33.944l25.944-15.568
	c3.432,1.672,6.96,3.152,10.6,4.408l7.336,29.336h48l7.336-29.336c3.64-1.256,7.176-2.736,10.6-4.408l25.944,15.568l33.944-33.944
	l-15.568-25.944c1.672-3.432,3.152-6.96,4.408-10.6L368.003,392.006z M248.003,416.006c-26.512,0-48-21.488-48-48s21.488-48,48-48
	s48,21.488,48,48S274.515,416.006,248.003,416.006z"/>
<g>
	<path style="fill:#FCD770;" d="M248.003,288.006c-44.184,0-80,35.816-80,80s35.816,80,80,80s80-35.816,80-80
		S292.187,288.006,248.003,288.006z M248.003,416.006c-26.512,0-48-21.488-48-48s21.488-48,48-48s48,21.488,48,48
		S274.515,416.006,248.003,416.006z"/>
	<path style="fill:#FCD770;" d="M344.003,104.006c0-54.264-45.024-98.016-99.76-95.928c-49.968,1.904-91.064,43.688-92.216,93.68
		c-0.84,36.456,18.704,68.344,47.976,85.304v20.944h96v-20.952C324.667,170.454,344.003,139.518,344.003,104.006z"/>
</g>
<path style="fill:#FFC729;" d="M244.243,8.078c-1.352,0.048-2.672,0.248-4.008,0.352c49.152,4.184,87.768,45.336,87.768,95.576
	c0,35.512-19.336,66.448-48,83.048v20.952h16v-20.952c28.664-16.608,48-47.536,48-83.048C344.003,49.742,298.979,5.99,244.243,8.078
	z"/>
<path style="fill:#D3A06C;" d="M248.003,288.006L248.003,288.006c-26.512,0-48-21.488-48-48v-32h96v32
	C296.003,266.518,274.515,288.006,248.003,288.006z"/>
<g>
	<rect x="8.003" y="232.006" style="fill:#ECECEC;" width="96" height="96"/>
	<rect x="392.003" y="232.006" style="fill:#ECECEC;" width="96" height="96"/>
</g>
<g>
	<path style="fill:#FF8031;" d="M224.003,120.006h-16c-8.84,0-16-7.16-16-16l0,0c0-8.84,7.16-16,16-16l0,0c8.84,0,16,7.16,16,16
		V120.006z"/>
	<path style="fill:#FF8031;" d="M272.003,120.006h16c8.84,0,16-7.16,16-16l0,0c0-8.84-7.16-16-16-16l0,0c-8.84,0-16,7.16-16,16
		V120.006z"/>
</g>
<path d="M248.003,312.006c-30.88,0-56,25.128-56,56s25.12,56,56,56s56-25.128,56-56S278.883,312.006,248.003,312.006z
	 M248.003,408.006c-22.056,0-40-17.944-40-40s17.944-40,40-40s40,17.944,40,40S270.059,408.006,248.003,408.006z"/>
<rect x="32.003" y="256.006" width="48" height="16"/>
<rect x="32.003" y="288.006" width="48" height="16"/>
<rect x="416.003" y="256.006" width="48" height="16"/>
<rect x="416.003" y="288.006" width="48" height="16"/>
<path d="M448.003,144.006H343.811c4.24-10.096,6.808-20.888,7.68-32h104.512c22.056,0,40-17.944,40-40s-17.944-40-40-40h-133.12
	c-0.936-0.968-1.784-1.992-2.76-2.936C299.571,9.286,272.507-1.01,243.947,0.078c-27.224,1.048-52.112,13.216-70.248,31.928H70.555
	L12.691,53.702c-7.592,2.84-12.688,10.2-12.688,18.304S5.099,87.47,12.683,90.31l57.872,21.696h73.92
	c0.864,11.144,3.512,21.904,7.744,32H48.003v80h-48v112h112v-112h-48v-64h96v-1.072c8.064,12.888,18.8,24.16,32,32.616v8.456h-16v16
	h16v16h-16v16h16.64c1.208,8.384,4.232,16.184,8.736,22.952l-22.232-15.104l-43.304,43.296l17.544,25.816
	c-1,2.184-1.92,4.392-2.752,6.592l-30.632,5.832v61.232l30.632,5.832c0.832,2.2,1.752,4.408,2.752,6.592l-17.544,25.816
	l43.304,43.296l25.816-17.536c2.192,1.008,4.392,1.928,6.584,2.76l5.84,30.624h61.232l5.84-30.624
	c2.192-0.832,4.392-1.752,6.584-2.76l25.816,17.536l43.304-43.296l-17.544-25.816c1-2.184,1.92-4.392,2.752-6.592l30.632-5.832
	V337.39l-30.632-5.832c-0.832-2.2-1.752-4.408-2.752-6.592l17.544-25.816l-43.304-43.296l-22.232,15.104
	c4.504-6.76,7.52-14.56,8.728-22.944h16.648v-16h-16v-16h16v-16h-16v-8.464c13.168-8.44,23.92-19.744,32-32.68v1.136h96v64h-48v112
	h112v-112h-48V144.006z M96.003,320.006h-80v-80h80V320.006z M349.131,80.006h34.872v16h-32.4
	C351.195,90.566,350.363,85.23,349.131,80.006z M400.003,48.006h16v48h-16V48.006z M480.003,72.006c0,13.232-10.768,24-24,24h-24
	v-48h24C469.235,48.006,480.003,58.774,480.003,72.006z M384.003,48.006v16h-39.96c-2.32-5.568-5.2-10.896-8.48-16H384.003z
	 M80.003,80.006h66.968c-1.28,5.208-2.104,10.552-2.536,16H80.003V80.006z M80.003,64.006v-16h80.944
	c-3.472,5.304-6.472,10.912-8.944,16.792v-0.792H80.003z M16.003,72.006c0-1.472,0.92-2.8,2.304-3.32L64.003,51.55v40.912
	L18.299,75.326C16.923,74.806,16.003,73.478,16.003,72.006z M339.491,301.102l-15.376,22.616l2.168,4.216
	c2.216,4.336,4.056,8.728,5.456,13.064l1.456,4.512l26.808,5.112v34.768l-26.816,5.112l-1.456,4.512
	c-1.4,4.336-3.232,8.728-5.456,13.064l-2.168,4.216l15.376,22.616l-24.584,24.576l-22.616-15.368l-4.224,2.168
	c-4.368,2.232-8.76,4.072-13.056,5.456l-4.512,1.464l-5.104,26.8h-34.768l-5.112-26.808l-4.512-1.464
	c-4.296-1.384-8.688-3.216-13.056-5.456l-4.224-2.168l-22.616,15.368l-24.584-24.576l15.376-22.616l-2.168-4.216
	c-2.216-4.336-4.056-8.728-5.456-13.064l-1.456-4.512l-26.808-5.104v-34.768l26.816-5.112l1.456-4.512
	c1.4-4.336,3.232-8.728,5.456-13.064l2.168-4.216l-15.376-22.616l24.584-24.576l22.624,15.368l4.224-2.168
	c2.728-1.408,5.496-2.608,8.256-3.688c9.024,6.272,19.976,9.968,31.792,9.968s22.768-3.696,31.808-9.968
	c2.744,1.08,5.504,2.28,8.264,3.688l4.216,2.168l22.616-15.368L339.491,301.102z M248.003,280.006
	c-19.312,0-35.472-13.768-39.192-32h78.384C283.475,266.238,267.315,280.006,248.003,280.006z M288.003,232.006h-80v-16h80V232.006z
	 M224.003,120.006h-16c-8.824,0-16-7.176-16-16s7.176-16,16-16s16,7.176,16,16V120.006z M256.003,200.006h-16v-64h16V200.006z
	 M291.995,180.134l-3.992,2.312v17.56h-16v-64h16c17.648,0,32-14.352,32-32s-14.352-32-32-32s-32,14.352-32,32v16h-16v-16
	c0-17.648-14.352-32-32-32s-32,14.352-32,32s14.352,32,32,32h16v64h-16v-17.56l-3.992-2.312
	c-27.864-16.144-44.72-46.104-43.984-78.192c1.048-45.608,38.96-84.128,84.52-85.864c1.168-0.056,2.32-0.072,3.48-0.072
	c22.896,0,44.448,8.664,61,24.592c17.392,16.744,26.976,39.264,26.976,63.408C336.003,135.238,319.139,164.406,291.995,180.134z
	 M272.003,120.006v-16c0-8.824,7.176-16,16-16s16,7.176,16,16s-7.176,16-16,16H272.003z M480.003,320.006h-80v-80h80V320.006z"/>
<g>
</g>
<g>
</g>
<g>
</g>
<g>
</g>
<g>
</g>
<g>
</g>
<g>
</g>
<g>
</g>
<g>
</g>
<g>
</g>
<g>
</g>
<g>
</g>
<g>
</g>
<g>
</g>
<g>
</g>
</svg>
