<svg id="Layer_3" enable-background="new 0 0 64 64" height="512" viewBox="0 0 64 64" width="512" xmlns="http://www.w3.org/2000/svg"><g><path d="m22 62v-3.076c0-3.247-.681-6.457-2-9.424-1.319-2.967-2-6.178-2-9.424v-1.076c0-6.627 5.373-12 12-12 6.627 0 12 5.373 12 12l4 8h-4v9h-6v6" fill="#f2b9a1"/><path d="m36 28.618c-1.766-1.023-3.812-1.618-6-1.618-6.627 0-12 5.373-12 12v1.076c0 3.247.681 6.457 2 9.424.363.816.672 1.652.937 2.5h13.063c1.105 0 2-.895 2-2z" fill="#fbe1ca"/><path d="m22 41c-.552 0-1-.448-1-1v-5c0-.552.448-1 1-1 .552 0 1 .448 1 1v5c0 .552-.448 1-1 1z" fill="#f2b9a1"/><path d="m33 58h-8c-.552 0-1 .448-1 1 0 .552.448 1 1 1h8c.552 0 1-.448 1-1 0-.552-.448-1-1-1z" fill="#fbe1ca"/><path d="m44 38h4v4l6-6-6-6v4h-4" fill="#ba4753"/><path d="m44 24v-4l-3.375-.563c-.179-.604-.416-1.184-.711-1.728l1.986-2.781-2.829-2.828-2.781 1.986c-.544-.296-1.124-.532-1.728-.711l-.562-3.375h-4l-.563 3.375c-.604.179-1.184.416-1.728.711l-2.78-1.986-2.828 2.828 1.986 2.781c-.296.544-.532 1.124-.711 1.728l-3.376.563v4l3.375.563c.179.604.416 1.184.711 1.728l-1.986 2.781 2.828 2.828 2.781-1.986c.544.296 1.124.532 1.728.711l.563 3.375h4l.563-3.375c.604-.179 1.184-.416 1.728-.711l2.781 1.986 2.828-2.828-1.986-2.781c.296-.544.532-1.124.711-1.728zm-12 3c-2.761 0-5-2.239-5-5s2.239-5 5-5 5 2.239 5 5-2.239 5-5 5z" fill="#787faa"/><path d="m32 15h-9.849l1.935 2.709c-.296.544-.532 1.124-.711 1.728l-3.375.563v4l3.375.563c.179.604.416 1.184.711 1.728l-1.935 2.709h9.849c3.866 0 7-3.134 7-7s-3.134-7-7-7zm0 12c-2.761 0-5-2.239-5-5s2.239-5 5-5 5 2.239 5 5-2.239 5-5 5z" fill="#4c506e"/><path d="m48 39h-16c-9.374 0-17-7.626-17-17h2c0 8.271 6.729 15 15 15h16z" fill="#e1656e"/><path d="m20 6h-4v-4l-6 6 6 6v-4h4" fill="#546ded"/><path d="m16 5h16c9.374 0 17 7.626 17 17h-2c0-8.271-6.729-15-15-15h-16z" fill="#7fa3f8"/><path d="m19.835 19.014c-.481.08-.835.497-.835.986v4c0 .489.354.906.835.986l2.78.463c.093.256.196.506.308.749l-1.637 2.292c-.284.397-.239.942.107 1.288l2.828 2.828c.345.346.89.391 1.288.107l2.292-1.637c.243.112.493.214.749.308l.463 2.78c.081.482.498.836.987.836h4c.489 0 .906-.354.986-.835l.463-2.78c.256-.093.506-.196.749-.308l2.291 1.637c.397.284.944.239 1.288-.107l2.829-2.828c.346-.346.391-.89.107-1.288l-1.637-2.292c.112-.243.214-.493.308-.749l2.78-.463c.482-.081.836-.498.836-.987v-4c0-.489-.354-.906-.835-.986l-2.78-.463c-.093-.256-.196-.506-.308-.749l1.637-2.292c.284-.398.239-.942-.107-1.288l-2.829-2.828c-.344-.346-.891-.391-1.288-.107l-2.291 1.637c-.243-.112-.493-.214-.749-.308l-.463-2.78c-.081-.482-.498-.836-.987-.836h-4c-.489 0-.906.354-.986.835l-.463 2.78c-.256.093-.506.196-.749.308l-2.292-1.637c-.398-.284-.943-.239-1.288.107l-2.828 2.828c-.346.346-.391.891-.107 1.288l1.637 2.292c-.112.243-.214.493-.308.749zm5.065-1.886-1.494-2.091 1.63-1.63 2.091 1.494c.311.222.722.247 1.058.065.474-.257.99-.469 1.535-.631.367-.109.639-.417.702-.794l.425-2.541h2.306l.423 2.54c.063.377.335.686.702.794.545.162 1.062.374 1.535.631.337.182.747.157 1.058-.065l2.091-1.494 1.63 1.63-1.492 2.092c-.222.311-.248.722-.065 1.058.257.474.469.99.631 1.535.109.367.417.639.794.702l2.54.424v2.306l-2.54.423c-.377.063-.686.335-.794.702-.162.545-.374 1.062-.631 1.535-.183.336-.157.747.065 1.058l1.494 2.091-1.63 1.63-2.092-1.492c-.312-.222-.721-.248-1.058-.065-.474.257-.99.469-1.535.631-.367.109-.639.417-.702.794l-.424 2.54h-2.306l-.423-2.54c-.063-.377-.335-.686-.702-.794-.545-.162-1.062-.374-1.535-.631-.336-.183-.747-.157-1.058.065l-2.091 1.494-1.63-1.63 1.494-2.091c.222-.311.248-.722.065-1.058-.257-.474-.469-.99-.631-1.535-.109-.367-.417-.639-.794-.702l-2.542-.425v-2.306l2.54-.423c.377-.063.686-.335.794-.702.162-.545.374-1.062.631-1.535.183-.336.158-.748-.065-1.059z"/><path d="m32 28c3.309 0 6-2.691 6-6s-2.691-6-6-6-6 2.691-6 6 2.691 6 6 6zm0-10c2.206 0 4 1.794 4 4s-1.794 4-4 4-4-1.794-4-4 1.794-4 4-4z"/><path d="m15.293 14.707c.286.286.715.371 1.09.217.373-.155.617-.52.617-.924v-3h3v-2h-4c-.552 0-1 .448-1 1v1.586l-3.586-3.586 3.586-3.586v1.586c0 .552.448 1 1 1h16c8.271 0 15 6.729 15 15h2c0-9.374-7.626-17-17-17h-15v-3c0-.404-.244-.769-.617-.924-.375-.155-.804-.07-1.09.217l-6 6c-.391.391-.391 1.023 0 1.414z"/><path d="m47.617 29.076c-.373.155-.617.52-.617.924v3h-3v2h4c.552 0 1-.448 1-1v-1.586l3.586 3.586-3.586 3.586v-1.586c0-.552-.448-1-1-1h-5.167c-.182-1.177-.51-2.323-1.012-3.417l-1.817.834c.38.83.64 1.695.803 2.583h-8.807c-8.271 0-15-6.729-15-15h-2c0 3.993 1.393 7.661 3.705 10.565-1.116 1.955-1.705 4.161-1.705 6.435v1.076c0 3.409.702 6.716 2.086 9.831 1.27 2.856 1.914 5.89 1.914 9.017v4.076h2v-4.076c0-3.409-.702-6.716-2.086-9.831-1.27-2.856-1.914-5.89-1.914-9.017v-1.076c0-1.698.391-3.35 1.131-4.852 3.066 2.997 7.253 4.852 11.869 4.852h9c0 .155.036.309.105.447l3.277 6.553h-2.382c-.552 0-1 .448-1 1v8h-8v2h2v6h2v-6h5c.552 0 1-.448 1-1v-8h3c.347 0 .668-.18.851-.474.182-.295.199-.663.044-.973l-3.777-7.553h3.882v3c0 .404.244.769.617.924.124.051.254.076.383.076.26 0 .516-.102.707-.293l6-6c.391-.391.391-1.023 0-1.414l-6-6c-.287-.287-.716-.373-1.09-.217z"/></g></svg>