<?xml version="1.0" encoding="iso-8859-1"?>
<!-- Generator: Adobe Illustrator 19.0.0, SVG Export Plug-In . SVG Version: 6.00 Build 0)  -->
<svg version="1.1" id="Capa_1" xmlns="http://www.w3.org/2000/svg" xmlns:xlink="http://www.w3.org/1999/xlink" x="0px" y="0px"
	 viewBox="0 0 512 512" style="enable-background:new 0 0 512 512;" xml:space="preserve">
<polygon style="fill:#F2387F;" points="7.515,504.471 288.063,320.111 288.063,288.048 7.515,392.251 "/>
<polygon style="fill:#F97BBB;" points="288.063,223.923 7.515,119.719 7.515,255.985 288.063,255.985 "/>
<polygon style="fill:#F74FA4;" points="7.515,255.985 7.515,392.251 288.063,288.048 288.063,255.985 "/>
<polygon style="fill:#FBA7D2;" points="7.515,7.5 7.515,119.719 288.063,223.923 288.063,191.86 "/>
<polygon style="fill:#855FB8;" points="360.204,360.189 227.074,360.189 129.492,424.314 424.329,424.314 "/>
<polygon style="fill:#7B49AD;" points="320.125,320.111 288.063,320.111 227.074,360.189 360.204,360.189 "/>
<polygon style="fill:#A487C9;" points="504.485,504.471 424.329,424.314 129.492,424.314 7.515,504.471 "/>
<path d="M504.485,496.956H385.252c-4.151,0-7.515,3.364-7.515,7.515c0,4.151,3.364,7.515,7.515,7.515h119.233
	c4.151,0,7.515-3.364,7.515-7.515C512,500.319,508.636,496.956,504.485,496.956z"/>
<path d="M348.681,496.956H32.634l99.107-65.127h292.588c4.151,0,7.515-3.364,7.515-7.515c0-4.151-3.364-7.515-7.515-7.515H154.611
	l74.711-49.096h130.882c4.151,0,7.515-3.364,7.515-7.515c0-4.151-3.364-7.515-7.515-7.515H252.193l38.117-25.049h29.815
	c4.151,0,7.515-3.364,7.515-7.515c0-4.151-3.364-7.515-7.515-7.515h-24.548V191.86c0-2.53-1.273-4.891-3.388-6.28L11.642,1.22
	C6.732-2.009,0,1.645,0,7.5v496.971c0,4.082,3.431,7.515,7.515,7.515h341.166c4.151,0,7.515-3.364,7.515-7.515
	C356.196,500.319,352.832,496.956,348.681,496.956z M216.423,205.329v43.141h-81.159v-73.286L216.423,205.329z M135.264,159.153
	v-58.712l81.159,53.333v35.523L135.264,159.153z M280.548,316.057l-49.096,32.263v-31.229l49.096-18.236V316.057z M280.548,282.824
	l-49.096,18.236v-37.558h49.096V282.824z M216.423,306.641l-81.159,30.144v-73.286h81.159V306.641z M120.235,342.368L15.029,381.444
	V263.5h105.205V342.368z M15.029,397.477L120.235,358.4v63.005L15.029,490.54V397.477z M135.264,352.817l81.159-30.145v35.523
	l-81.159,53.333V352.817z M280.548,248.471h-49.096v-37.558l49.096,18.236V248.471z M120.235,248.471H15.029V130.526l105.205,39.076
	V248.471z M280.548,213.116l-49.096-18.236v-31.229l49.096,32.263V213.116z M120.235,90.566v63.005L15.029,114.495V21.431
	L120.235,90.566z"/>
<g>
</g>
<g>
</g>
<g>
</g>
<g>
</g>
<g>
</g>
<g>
</g>
<g>
</g>
<g>
</g>
<g>
</g>
<g>
</g>
<g>
</g>
<g>
</g>
<g>
</g>
<g>
</g>
<g>
</g>
</svg>
