<svg xmlns="http://www.w3.org/2000/svg" viewBox="0 0 24 30" x="0px" y="0px"><title>Artboard 65</title><g data-name="Layer 101"><path d="M20.293,2.293,4,18.5859V13a1,1,0,0,0-2,0v8a.9858.9858,0,0,0,.0706.3492.9238.9238,0,0,0,.045.0948.9851.9851,0,0,0,.14.2085.8778.8778,0,0,0,.3354.2558c.0083.0037.0145.01.0229.0138l.0029.0017A1,1,0,0,0,3,22h8a1,1,0,0,0,0-2H5.4141L21.707,3.707a1,1,0,1,0-1.414-1.414Z"/></g><text x="0" y="39" fill="#000000" font-size="5px" font-weight="bold" font-family="'Helvetica Neue', Helvetica, Arial-Unicode, Arial, Sans-serif">Created by ghufronagustian</text><text x="0" y="44" fill="#000000" font-size="5px" font-weight="bold" font-family="'Helvetica Neue', Helvetica, Arial-Unicode, Arial, Sans-serif">from the Noun Project</text></svg>